<svg id="Layer_1" data-name="Layer 1" xmlns="http://www.w3.org/2000/svg" viewBox="0 0 60 60"><defs><style>.cls-1{fill:none;stroke:#000;stroke-miterlimit:10;stroke-width:1.5px;}</style></defs><title>Artboard 1</title><circle class="cls-1" cx="28.1" cy="10.99" r="3.79"/><path class="cls-1" d="M30,7.52A1.89,1.89,0,1,1,31.72,9.4"/><path class="cls-1" d="M26.86,14.84,21.57,25.62a.5.5,0,0,1-.44.24l-4.85,1.07a2.22,2.22,0,1,0,0,4.44l6.25-1.21a.5.5,0,0,0,.33-.23l2.73-4.52a.5.5,0,0,1,.93.21l.58,6A.5.5,0,0,1,27,32l-6,6a.5.5,0,0,0-.15.35v14.3A.52.52,0,0,0,21,53c2.37,2.51,5.3.87,5.3-1.46v-3a.5.5,0,0,1,.44-.5l9.4-1.22a.5.5,0,0,1,.46.19l4.75,6.28a2.72,2.72,0,0,0,3.84-3.84L38.77,42.1a.5.5,0,0,1-.11-.22l-4.1-18.81a.5.5,0,0,1,.81-.49l2,1.73a.5.5,0,0,1,.12.16L40.35,30a.57.57,0,0,0,.12.16A2.22,2.22,0,0,0,43.54,27L40,20.79a.5.5,0,0,0-.16-.17L30.3,14.39"/><line class="cls-1" x1="16.28" y1="31.37" x2="16.28" y2="54.37"/></svg>