<svg id="Layer_1" data-name="Layer 1" xmlns="http://www.w3.org/2000/svg" viewBox="0 0 60 60"><defs><style>.cls-1,.cls-2{fill:none;stroke:#000;stroke-miterlimit:10;stroke-width:1.5px;}.cls-2{stroke-linecap:round;}</style></defs><title>Artboard 1 copy</title><circle class="cls-1" cx="22.61" cy="13.02" r="5.24"/><circle class="cls-1" cx="53.44" cy="43.06" r="4.42"/><path class="cls-1" d="M37,47.95h19a2,2,0,1,1,0,4l-53.77.26a.61.61,0,0,1-.65-.58V41.23a2.08,2.08,0,0,1,2.19-2H44.29c2.27,0,4.31,1.48,4.52,3.51a4.09,4.09,0,0,1-4.33,4.27H37"/><line class="cls-1" x1="37.04" y1="39.28" x2="37.04" y2="52.06"/><path class="cls-2" d="M19.54,24.78,22,30.43a.5.5,0,0,0,.24.25s7,3.27,7.74,3.72A1.82,1.82,0,0,1,30,37c-.7.7-1.93.27-2.55.05l-8.6-3.44a.5.5,0,0,1-.27-.27l-3.77-8.7a.46.46,0,0,1,0-.1c-.11-.6-1-6.13,4.07-6.13h7.87a2.92,2.92,0,0,1,2.12.91l6.84,7.22a.5.5,0,0,1,.13.27L37,34.7a1.84,1.84,0,0,1-3.69,0l-.61-5.25a.5.5,0,0,0-.14-.29l-3-3.08a.5.5,0,0,0-.86.35l0,7.25"/></svg>