<svg id="Layer_1" data-name="Layer 1" xmlns="http://www.w3.org/2000/svg" viewBox="0 0 60 60"><defs><style>.cls-1{fill:none;stroke:#000;stroke-linecap:round;stroke-miterlimit:10;stroke-width:1.5px;}</style></defs><title>Artboard 1 copy 2</title><circle class="cls-1" cx="30" cy="30.25" r="23.67"/><circle class="cls-1" cx="30" cy="30.25" r="3.89"/><circle class="cls-1" cx="30" cy="30.25" r="3.89"/><path class="cls-1" d="M30,21.82a8.63,8.63,0,0,1,3.93.95l5.25-9.72a19.63,19.63,0,0,0-18.12-.12l5.25,9.72A8.63,8.63,0,0,1,30,21.82Z"/><path class="cls-1" d="M30.24,38.68a8.63,8.63,0,0,1-3.93-.95l-5.25,9.72a19.63,19.63,0,0,0,18.12.12l-5.25-9.72A8.63,8.63,0,0,1,30.24,38.68Z"/><path class="cls-1" d="M38.55,30.13a8.63,8.63,0,0,1-.95,3.93l9.72,5.25a19.63,19.63,0,0,0,.12-18.12l-9.72,5.25A8.63,8.63,0,0,1,38.55,30.13Z"/><path class="cls-1" d="M21.69,30.37a8.63,8.63,0,0,1,.95-3.93l-9.72-5.25a19.63,19.63,0,0,0-.12,18.12l9.72-5.25A8.63,8.63,0,0,1,21.69,30.37Z"/><path class="cls-1" d="M45.82,12.57h3.63a4,4,0,0,0,4-4V6.08"/></svg>