<svg id="Layer_1" data-name="Layer 1" xmlns="http://www.w3.org/2000/svg" viewBox="0 0 60 60"><defs><style>.cls-1,.cls-2,.cls-3{fill:none;stroke:#000;stroke-miterlimit:10;}.cls-1,.cls-3{stroke-linecap:round;}.cls-2,.cls-3{stroke-width:1.5px;}</style></defs><title>Artboard 1 copy 5</title><path class="cls-1" d="M51.13,17.36a27.64,27.64,0,0,1-20.88,9.57A27.65,27.65,0,0,1,9.13,17.07"/><line class="cls-2" x1="8.63" y1="11.06" x2="8.63" y2="48.94"/><line class="cls-3" x1="51.38" y1="11.06" x2="51.38" y2="48.94"/><path d="M10.65,18.73l-.6,5.83,5.69-1.65s-1.83-1.16-2.9-2A19.2,19.2,0,0,1,10.65,18.73Z"/><path d="M15.28,22.51l.79,6.81,4.85-3.63A22.73,22.73,0,0,1,18,24.53,16.32,16.32,0,0,1,15.28,22.51Z"/><path d="M20.73,25.63l3,6.16,3.92-4.69A34,34,0,0,1,24,26.62C22.72,26.33,20.73,25.63,20.73,25.63Z"/><path d="M49.5,19.28l.64,4.62-5.35-.64a22.73,22.73,0,0,0,2.57-1.75A19.2,19.2,0,0,0,49.5,19.28Z"/><path d="M45,23l-.44,5.91-5.12-3.24a20.45,20.45,0,0,0,2.94-1.19C43.58,23.79,45,23,45,23Z"/><path d="M39.8,25.46l-1.87,5.6L33.22,27a28.08,28.08,0,0,0,3.68-.47A19.2,19.2,0,0,0,39.8,25.46Z"/><path d="M27.38,27.05l4.07,5,2.1-5.14a22.73,22.73,0,0,1-3.08.37A19.2,19.2,0,0,1,27.38,27.05Z"/></svg>