<svg id="Layer_1" data-name="Layer 1" xmlns="http://www.w3.org/2000/svg" viewBox="0 0 60 60"><defs><style>.cls-1{fill:none;stroke:#000;stroke-miterlimit:10;stroke-width:1.5px;}</style></defs><title>Artboard 1 copy 7</title><path class="cls-1" d="M42.12,4.81c0,15.81-8.33,21.8-11.11,23.46a2,2,0,0,1-2,0c-2.77-1.67-11.06-7.65-11.06-23.46,0,19.08-13.51,25-13.51,25V55.19h7.89V38.08A4.07,4.07,0,0,1,15.88,34a4,4,0,0,1,4.34,3.93V55.19H26V38.08A4.07,4.07,0,0,1,29.61,34,4,4,0,0,1,34,37.91V55.19h5V38.08A4.07,4.07,0,0,1,42.47,34a4,4,0,0,1,4.34,3.93V55.19h8.76V29.82S42.12,23.89,42.12,4.81Z"/><polyline class="cls-1" points="4.43 29.82 18.52 29.82 55.57 29.82"/><line class="cls-1" x1="17.91" y1="10.27" x2="17.91" y2="30.33"/><line class="cls-1" x1="42.13" y1="13.09" x2="42.13" y2="30.33"/><path class="cls-1" d="M12.12,46.56h1.61a2.23,2.23,0,0,1,2.19,2.27,2.23,2.23,0,0,0,2.19,2.27h1.64"/><path class="cls-1" d="M33.3,46.56H31.69a2.23,2.23,0,0,0-2.19,2.27,2.23,2.23,0,0,1-2.19,2.27H25.67"/><path class="cls-1" d="M46.7,46.56H45.09a2.23,2.23,0,0,0-2.19,2.27,2.23,2.23,0,0,1-2.19,2.27H39.07"/></svg>