<svg id="Layer_1" data-name="Layer 1" xmlns="http://www.w3.org/2000/svg" viewBox="0 0 60 60"><defs><style>.cls-1{fill:none;stroke:#000;stroke-linecap:round;stroke-miterlimit:10;stroke-width:1.5px;}</style></defs><title>Artboard 1 copy 8</title><circle class="cls-1" cx="29.23" cy="16.2" r="5.82"/><path d="M15.64,17.23l.38,1.2a.45.45,0,0,0,.3.29l1.2.37-1,.73a.45.45,0,0,0-.19.37l0,1.26-1-.75a.45.45,0,0,0-.41-.06l-1.19.41.4-1.2a.45.45,0,0,0-.07-.41l-.76-1h1.26a.45.45,0,0,0,.37-.19Z"/><path d="M38.74,1.35l.27,2a.45.45,0,0,0,.24.34l1.78.9-1.8.87a.45.45,0,0,0-.25.34l-.31,2L37.3,6.3a.45.45,0,0,0-.4-.13l-2,.32.95-1.76a.45.45,0,0,0,0-.42L35,2.53l2,.36a.45.45,0,0,0,.4-.13Z"/><path class="cls-1" d="M46.05,16.56l-9.53,8.36a3,3,0,0,0-1,2.32l.41,10.49a1.29,1.29,0,0,0,.1.47l3.54,8.56a2.28,2.28,0,0,1-.2,2.12L34,57a3,3,0,1,1-5-3.36L32.84,48A2.28,2.28,0,0,0,33.12,46C32.43,44,31.05,40.16,31,40.19l-.09,0c-.7.25-.8,1-.52,1.72l1.47,4.25a2.88,2.88,0,0,1,0,2.23l-1.89,3.45-4,5.43a3,3,0,0,1-5-3.36l4.69-6a2,2,0,0,0,.25-2.06L23.4,40.52V30.18a.64.64,0,0,0-1.06-.48l-1,.83a1.46,1.46,0,0,0-.15,2l1,1.2a2.53,2.53,0,0,1,0,3.58c-1,1-1.84,1.24-2.83.25,0,0-2.44-2.77-4-4.52A2.29,2.29,0,0,1,15.32,30l8.15-7.06a2.24,2.24,0,0,1,1-.42l3.39-.41,2.76,0a2.31,2.31,0,0,0,1.57-.62l10.55-8a2.44,2.44,0,0,1,3.35-.06A2.28,2.28,0,0,1,46.05,16.56Z"/></svg>