<svg id="Layer_1" data-name="Layer 1" xmlns="http://www.w3.org/2000/svg" viewBox="0 0 60 60"><defs><style>.cls-1,.cls-2{fill:none;stroke:#000;stroke-miterlimit:10;stroke-width:1.5px;}.cls-1{stroke-linecap:round;}</style></defs><title>Artboard 1 copy 11</title><path class="cls-1" d="M25.43,53.21H52.35a.5.5,0,0,0,.5-.5V36.78a.5.5,0,0,0-.29-.45l-9.17-4.23a.5.5,0,0,1-.29-.45V23.27a.5.5,0,0,0-.28-.45l-12.6-6.25a.5.5,0,0,0-.44,0l-12.6,6.25a.5.5,0,0,0-.28.45v8.37a.5.5,0,0,1-.29.45L7.44,36.32a.5.5,0,0,0-.29.45V52.71a.5.5,0,0,0,.5.5H25.43Z"/><circle class="cls-1" cx="30" cy="27.23" r="3.2"/><path class="cls-1" d="M24.62,53.21V41.81a5.38,5.38,0,0,1,10.76,0v11.4"/><line class="cls-2" x1="30.05" y1="6.79" x2="30.05" y2="16.57"/><line class="cls-2" x1="26.21" y1="10.62" x2="33.89" y2="10.62"/></svg>