<svg id="Layer_1" data-name="Layer 1" xmlns="http://www.w3.org/2000/svg" viewBox="0 0 60 60"><defs><style>.cls-1{fill:none;stroke:#000;stroke-miterlimit:10;stroke-width:1.5px;}</style></defs><title>Artboard 1 copy 12</title><path class="cls-1" d="M32.83,27.83C37.33,33,36,36,35.31,37a1.7,1.7,0,0,1-.41.4L29.65,41a3.4,3.4,0,0,0-1.43,2.28c-.28,2-1.6,5.5-5.47,9.3-4.71,4.62-8.9,2.18-10.05,1.75s-5.05-5.21-5.05-5.21l-.54-.63S2.94,44,2.67,42.76s-2.06-5.7,3.19-9.69c4.32-3.28,8-4.07,10-4.06a3.4,3.4,0,0,0,2.46-1.09l4.4-4.65a1.7,1.7,0,0,1,.45-.35c1-.52,4.17-1.44,8.67,3.78Z"/><circle class="cls-1" cx="15.29" cy="41.99" r="4.75" transform="matrix(0.07, -1, 1, 0.07, -27.7, 54.17)"/><line class="cls-1" x1="25.21" y1="31.22" x2="27.38" y2="33.74"/><line class="cls-1" x1="32.34" y1="27.26" x2="55.24" y2="7.48"/><line class="cls-1" x1="48.68" y1="8.8" x2="52.98" y2="13.79"/><line class="cls-1" x1="53.53" y1="4.61" x2="57.84" y2="9.59"/></svg>