<svg id="Layer_1" data-name="Layer 1" xmlns="http://www.w3.org/2000/svg" viewBox="0 0 60 60"><defs><style>.cls-1,.cls-2{fill:none;stroke:#000;stroke-miterlimit:10;stroke-width:1.5px;}.cls-2{stroke-linecap:round;}</style></defs><title>Artboard 1 copy 13</title><rect class="cls-1" x="6.88" y="19.71" width="46.24" height="33.39" rx="3" ry="3"/><line class="cls-2" x1="15.84" y1="6.9" x2="44.09" y2="19.84"/><line class="cls-2" x1="12.34" y1="26.65" x2="47.34" y2="26.65"/><circle class="cls-1" cx="43.91" cy="34.78" r="3.34"/><circle class="cls-1" cx="43.91" cy="44.95" r="3.34"/><rect x="13.88" y="30.83" width="2" height="2"/><rect x="18.73" y="30.83" width="2" height="2"/><rect x="23.59" y="30.83" width="2" height="2"/><rect x="28.44" y="30.83" width="2" height="2"/><rect x="33.29" y="30.83" width="2" height="2"/><rect x="13.88" y="34.85" width="2" height="2"/><rect x="18.73" y="34.85" width="2" height="2"/><rect x="23.59" y="34.85" width="2" height="2"/><rect x="28.44" y="34.85" width="2" height="2"/><rect x="33.29" y="34.85" width="2" height="2"/><rect x="13.88" y="38.86" width="2" height="2"/><rect x="18.73" y="38.86" width="2" height="2"/><rect x="23.59" y="38.86" width="2" height="2"/><rect x="28.44" y="38.86" width="2" height="2"/><rect x="33.29" y="38.86" width="2" height="2"/><rect x="13.88" y="42.88" width="2" height="2"/><rect x="18.73" y="42.88" width="2" height="2"/><rect x="23.59" y="42.88" width="2" height="2"/><rect x="28.44" y="42.88" width="2" height="2"/><rect x="33.29" y="42.88" width="2" height="2"/><rect x="13.88" y="46.89" width="2" height="2"/><rect x="18.73" y="46.89" width="2" height="2"/><rect x="23.59" y="46.89" width="2" height="2"/><rect x="28.44" y="46.89" width="2" height="2"/><rect x="33.29" y="46.89" width="2" height="2"/></svg>