<svg id="Layer_1" data-name="Layer 1" xmlns="http://www.w3.org/2000/svg" viewBox="0 0 60 60"><defs><style>.cls-1{fill:none;stroke:#000;stroke-linecap:round;stroke-miterlimit:10;stroke-width:1.5px;}</style></defs><title>Artboard 1 copy 17</title><path class="cls-1" d="M14.92,44.18H7.84a.5.5,0,0,1-.5-.5V12.44a.5.5,0,0,1,.5-.5H52.16a.5.5,0,0,1,.5.5V43.68a.5.5,0,0,1-.5.5H45.58"/><path class="cls-1" d="M17.08,40H13a.5.5,0,0,1-.5-.5V17.62a.5.5,0,0,1,.5-.5H47a.5.5,0,0,1,.5.5V39.5a.5.5,0,0,1-.5.5H45.35"/><circle class="cls-1" cx="21.94" cy="32.51" r="3.89"/><path class="cls-1" d="M27.39,40.52A7.06,7.06,0,0,0,14.92,45v3H27.39"/><circle class="cls-1" cx="36.28" cy="28.31" r="5.2"/><path class="cls-1" d="M45.17,42.39a6.31,6.31,0,0,0-2.33-4.94,10.53,10.53,0,0,0-13-.08,6.51,6.51,0,0,0-2.44,5.16v5.53H45.17Z"/></svg>