<svg id="Layer_1" data-name="Layer 1" xmlns="http://www.w3.org/2000/svg" viewBox="0 0 60 60"><defs><style>.cls-1{fill:none;stroke:#000;stroke-linecap:round;stroke-miterlimit:10;stroke-width:1.5px;}</style></defs><title>Artboard 1 copy 18</title><rect class="cls-1" x="11.13" y="7.31" width="37.75" height="29.25" rx="3" ry="3"/><path class="cls-1" d="M49.17,52.69H10.83a3,3,0,0,1-2.89-4l3.46-9.62a3.06,3.06,0,0,1,2.89-2H45.7a3.06,3.06,0,0,1,2.89,2l3.46,9.63A3,3,0,0,1,49.17,52.69Z"/><ellipse class="cls-1" cx="23.42" cy="28.28" rx="2.75" ry="1.61" transform="translate(-8.17 9.56) rotate(-19.72)"/><ellipse class="cls-1" cx="33.44" cy="25.23" rx="2.75" ry="1.61" transform="translate(-6.55 12.77) rotate(-19.72)"/><path class="cls-1" d="M26.07,27.24V17a1,1,0,0,1,1-1h8a1,1,0,0,1,1,1v7.64"/><line class="cls-1" x1="26.07" y1="19.44" x2="36.09" y2="19.44"/></svg>