<?xml version="1.0" encoding="UTF-8"?>
<svg width="107px" height="107px" viewBox="0 0 107 107" version="1.1" xmlns="http://www.w3.org/2000/svg" xmlns:xlink="http://www.w3.org/1999/xlink">
    <!-- Generator: Sketch 49.3 (51167) - http://www.bohemiancoding.com/sketch -->
    <title>Price</title>
    <desc>Created with Sketch.</desc>
    <defs></defs>
    <g id="Design" stroke="none" stroke-width="1" fill="none" fill-rule="evenodd">
        <g id="Style-Guide" transform="translate(-356.000000, -812.000000)" stroke="#ffffff" stroke-width="4">
            <g id="Icons" transform="translate(199.000000, 704.000000)">
                <g id="Price" transform="translate(158.000000, 109.000000)">
                    <path d="M57.5148063,48.165817 L78.6613452,27.1919125" id="Stroke-1"></path>
                    <polyline id="Stroke-2" points="41.0274069 92.8826303 52.5891859 104.444409 104.616009 52.4175859 52.5891859 0.3907625 0.5623625 52.4175859 12.1241416 63.9770002"></polyline>
                    <polygon id="Stroke-4" points="30.5823424 103.117613 73.1379191 60.564401 69.2217182 35.5726069 44.2322889 31.6587709 1.67907708 74.2143476 14.8867957 87.4220662"></polygon>
                    <path d="M45.4522369,59.3643575 C48.725197,62.6373177 54.0295682,62.6373177 57.3025283,59.3643575 C60.5731236,56.0913973 60.5731236,50.7870262 57.3025283,47.514066 C54.0295682,44.2411059 48.725197,44.2411059 45.4522369,47.514066 C42.1792767,50.7870262 42.1792767,56.0913973 45.4522369,59.3643575 Z" id="Stroke-6"></path>
                    <path d="M12.8462229,64.0434938 L41.7494882,92.949124" id="Stroke-8"></path>
                </g>
            </g>
        </g>
    </g>
</svg>