<?xml version="1.0" encoding="UTF-8"?>
<svg width="69px" height="90px" viewBox="0 0 69 90" version="1.1" xmlns="http://www.w3.org/2000/svg" xmlns:xlink="http://www.w3.org/1999/xlink">
    <!-- Generator: Sketch 49.3 (51167) - http://www.bohemiancoding.com/sketch -->
    <title>Size</title>
    <desc>Created with Sketch.</desc>
    <defs></defs>
    <g id="Design" stroke="none" stroke-width="1" fill="none" fill-rule="evenodd">
        <g id="Style-Guide" transform="translate(-502.000000, -820.000000)" stroke="#ffffff" stroke-width="2">
            <g id="Icons" transform="translate(199.000000, 704.000000)">
                <g id="Size" transform="translate(304.000000, 117.000000)">
                    <polygon id="Stroke-1" points="0 88 67 88 67 0 0 0"></polygon>
                    <path d="M0,75 L67,75" id="Stroke-3"></path>
                    <path d="M0,14 L67,14" id="Stroke-4"></path>
                    <path d="M44,0 L44,15" id="Stroke-5"></path>
                    <path d="M27,75 L27,88" id="Stroke-6"></path>
                    <path d="M49,59 L17,27" id="Stroke-8"></path>
                    <polyline id="Stroke-9" points="50 51 50 61 40 61"></polyline>
                    <polyline id="Stroke-10" points="17 37 17 27 27 27"></polyline>
                    <path d="M18,59 L50,27" id="Stroke-11"></path>
                    <polyline id="Stroke-12" points="27 61 17 61 17 51"></polyline>
                    <polyline id="Stroke-13" points="40 27 50 27 50 37"></polyline>
                </g>
            </g>
        </g>
    </g>
</svg>