<svg id="Layer_1" data-name="Layer 1" xmlns="http://www.w3.org/2000/svg" viewBox="0 0 60 60"><defs><style>.cls-1{fill:none;stroke:#000;stroke-linecap:round;stroke-miterlimit:10;stroke-width:1.5px;}</style></defs><title>Artboard 1 copy 23</title><circle class="cls-1" cx="33.42" cy="12.14" r="5.14"/><path class="cls-1" d="M30.18,38.16,14.37,50.59a2.39,2.39,0,0,1-3.35-.4h0a2.39,2.39,0,0,1,.4-3.35l15.23-12L27,26.29a.56.56,0,0,0-.88-.48l-3.81,2.68L24,33.67a2.16,2.16,0,0,1-1.41,2.72h0A2.16,2.16,0,0,1,19.83,35l-2.23-7a3.09,3.09,0,0,1,1.5-3.66l7.78-4.13a5.35,5.35,0,0,1,2.95-.61l7.16.59a1.38,1.38,0,0,1,.72.28l10.9,8.35a2.16,2.16,0,0,1,.43,3h0a2.16,2.16,0,0,1-3,.43l-6.59-5a.24.24,0,0,0-.38.18l-.22,4.87a3.21,3.21,0,0,0,1.8,3L47,38.45a2.07,2.07,0,0,1,1,2.76L42.85,51.79a2.16,2.16,0,0,1-2.89,1h0a2.16,2.16,0,0,1-1-2.89l3.09-6.37a1.85,1.85,0,0,0-.6-2.32L36.89,38a2.39,2.39,0,0,0-1.64-.42Z"/></svg>