<svg id="Layer_1" data-name="Layer 1" xmlns="http://www.w3.org/2000/svg" viewBox="0 0 60 60"><defs><style>.cls-1{fill:none;stroke:#000;stroke-linecap:round;stroke-miterlimit:10;stroke-width:1.5px;}</style></defs><title>Artboard 1 copy 22</title><path class="cls-1" d="M36.76,50.4c-3.48-.46-12.18-6-10.69-17.72s2.84-15.89,4-15.89,7.16,5.38,12.11,6.53,13.65.26,14.92.26-.46,10.6-3.8,16.47S44.37,51.4,36.76,50.4Z"/><path class="cls-1" d="M27,41.38a13.43,13.43,0,0,1-2.62,1.3C21.06,43.9,10.8,43.07,6.65,32S2.15,16.5,2.75,16.07c.91-.65,8.84,1.43,13.76.14s12.2-6.12,13.32-6.71c.76-.4,2.59,4.21,3.6,9.32"/><path class="cls-1" d="M37.79,32.67a3.9,3.9,0,0,0-3.51-4.23,3.9,3.9,0,0,0-4.55,3.09Z"/><path class="cls-1" d="M50.36,36.61a4.09,4.09,0,0,0-7.65-2.78Z"/><path class="cls-1" d="M27.85,21l-6,1.41a3.9,3.9,0,0,0,4.81,2.66,4.52,4.52,0,0,0,.51-.15"/><path class="cls-1" d="M9.45,25.69a3.9,3.9,0,0,0,4.86,2.57,3.9,3.9,0,0,0,3-4.59Z"/><path class="cls-1" d="M30.7,37.39a8.71,8.71,0,0,0,7.72,6c6.3.61,8.51-2.13,8.51-2.13Z"/><path class="cls-1" d="M25.91,33.73,14.39,36.47a8.71,8.71,0,0,1,7.72-6,15.58,15.58,0,0,1,4.24.12"/></svg>